<svg width="20" height="20" viewBox="0 0 20 20" fill="none" xmlns="http://www.w3.org/2000/svg">
<path d="M19.1673 2.50057C18.3693 3.06347 17.4857 3.49399 16.5507 3.77557C16.0488 3.19849 15.3818 2.78948 14.6398 2.60384C13.8979 2.4182 13.1169 2.4649 12.4024 2.73761C11.6879 3.01033 11.0744 3.4959 10.6448 4.12866C10.2153 4.76143 9.9904 5.51085 10.0007 6.27557V7.1089C8.53618 7.14687 7.08505 6.82208 5.77649 6.16344C4.46794 5.5048 3.34258 4.53276 2.50065 3.3339C2.50065 3.3339 -0.832682 10.8339 6.66732 14.1672C4.95109 15.3322 2.90661 15.9163 0.833984 15.8339C8.33398 20.0006 17.5006 15.8339 17.5006 6.25057C17.4999 6.01845 17.4776 5.7869 17.434 5.5589C18.2845 4.72014 18.8847 3.66116 19.1673 2.50057Z" stroke="#F7F7F7" stroke-width="1.3" stroke-linecap="round" stroke-linejoin="round"/>
</svg>
