<!-- Generated by IcoMoon.io -->
<svg version="1.1" xmlns="http://www.w3.org/2000/svg" width="1024" height="1024" viewBox="0 0 1024 1024">
<title>instagram</title>
<g id="icomoon-ignore">
</g>
<path fill="none" stroke-linejoin="round" stroke-linecap="round" stroke-miterlimit="4" stroke-width="66.56" stroke="#000" d="M725.299 85.3h-426.666c-117.82 0-213.333 95.513-213.333 213.333v426.666c0 117.821 95.513 213.335 213.333 213.335h426.666c117.821 0 213.335-95.514 213.335-213.335v-426.666c0-117.82-95.514-213.333-213.335-213.333z"></path>
<path fill="none" stroke-linejoin="round" stroke-linecap="round" stroke-miterlimit="4" stroke-width="66.56" stroke="#000" d="M682.685 485.133c5.268 35.51-0.799 71.775-17.331 103.636-16.532 31.867-42.691 57.702-74.757 73.841-32.067 16.143-68.403 21.76-103.844 16.056-35.442-5.704-68.183-22.436-93.566-47.821-25.383-25.38-42.117-58.122-47.82-93.563-5.703-35.444-0.086-71.781 16.054-103.846s41.978-58.224 73.842-74.758c31.863-16.533 68.129-22.599 103.638-17.333 36.219 5.371 69.755 22.249 95.647 48.141s42.767 59.425 48.138 95.646z"></path>
<path fill="none" stroke-linejoin="round" stroke-linecap="round" stroke-miterlimit="4" stroke-width="66.56" stroke="#000" d="M746.701 277.3h0.512"></path>
</svg>
