<svg width="20" height="20" viewBox="0 0 20 20" fill="none" xmlns="http://www.w3.org/2000/svg">
<path d="M14.166 1.66602H5.83268C3.5315 1.66602 1.66602 3.5315 1.66602 5.83268V14.166C1.66602 16.4672 3.5315 18.3327 5.83268 18.3327H14.166C16.4672 18.3327 18.3327 16.4672 18.3327 14.166V5.83268C18.3327 3.5315 16.4672 1.66602 14.166 1.66602Z"  stroke-width="1.3" stroke-linecap="round" stroke-linejoin="round"/>
<path d="M13.3337 9.47525C13.4366 10.1688 13.3181 10.8771 12.9952 11.4994C12.6723 12.1218 12.1614 12.6264 11.5351 12.9416C10.9088 13.2569 10.1991 13.3666 9.5069 13.2552C8.81468 13.1438 8.17521 12.817 7.67944 12.3212C7.18367 11.8255 6.85685 11.186 6.74546 10.4938C6.63408 9.80154 6.74379 9.09183 7.05901 8.46556C7.37423 7.8393 7.8789 7.32837 8.50123 7.00545C9.12356 6.68254 9.83187 6.56407 10.5254 6.66692C11.2328 6.77182 11.8878 7.10147 12.3935 7.60717C12.8992 8.11288 13.2288 8.76782 13.3337 9.47525Z"  stroke-width="1.3" stroke-linecap="round" stroke-linejoin="round"/>
<path d="M14.584 5.41602H14.594"  stroke-width="1.3" stroke-linecap="round" stroke-linejoin="round"/>
</svg>
