<!-- Generated by IcoMoon.io -->
<svg version="1.1" xmlns="http://www.w3.org/2000/svg" width="1024" height="1024" viewBox="0 0 1024 1024">
<title>instagram</title>
<g id="icomoon-ignore">
</g>
<path fill="none" stroke-linejoin="round" stroke-linecap="round" stroke-miterlimit="4" stroke-width="66.56" stroke="#000" d="M981.366 128.029c-40.858 28.82-86.098 50.863-133.97 65.28-25.697-29.546-59.848-50.488-97.838-59.993-37.985-9.505-77.972-7.114-114.555 6.849s-67.994 38.824-89.989 71.222c-21.99 32.398-33.505 70.768-32.978 109.922v42.666c-74.983 1.944-149.281-14.685-216.28-48.408s-124.616-83.491-167.723-144.872c0 0-170.667 384 213.334 554.665-87.871 59.648-192.548 89.554-298.667 85.335 384 213.335 853.331 0 853.331-490.666-0.036-11.885-1.178-23.74-3.41-35.414 43.546-42.945 74.276-97.164 88.745-156.586z"></path>
</svg>
