<?xml version="1.0" standalone="no"?>
<!DOCTYPE svg PUBLIC "-//W3C//DTD SVG 20010904//EN"
 "http://www.w3.org/TR/2001/REC-SVG-20010904/DTD/svg10.dtd">
<svg version="1.0" xmlns="http://www.w3.org/2000/svg"
 width="4096.000000pt" height="4096.000000pt" viewBox="0 0 4096.000000 4096.000000"
 preserveAspectRatio="xMidYMid meet">
<metadata>
Created by potrace 1.14, written by Peter Selinger 2001-2017
</metadata>
<g transform="translate(0.000000,4096.000000) scale(0.100000,-0.100000)"
fill="#000000" stroke="none">
<path d="M37308 23655 c-2 -1 -41 -6 -88 -10 -47 -4 -105 -9 -130 -11 -82 -7
-288 -45 -387 -70 -54 -14 -107 -28 -118 -30 -27 -7 -37 -10 -55 -17 -8 -3
-40 -13 -70 -22 -143 -45 -383 -151 -530 -236 -70 -40 -285 -183 -300 -199 -3
-3 -25 -21 -50 -40 -109 -84 -266 -232 -352 -331 -26 -30 -57 -65 -69 -79 -28
-33 -169 -219 -169 -225 0 -2 -15 -26 -32 -52 -47 -69 -98 -154 -98 -163 0 -5
-4 -10 -8 -12 -12 -5 -162 -311 -162 -330 0 -9 -4 -19 -9 -23 -5 -3 -17 -29
-27 -58 -9 -28 -21 -58 -27 -64 -5 -7 -7 -13 -4 -13 3 0 0 -15 -8 -33 -13 -33
-80 -259 -89 -307 -3 -14 -15 -68 -26 -120 -11 -52 -23 -113 -26 -135 -2 -22
-6 -47 -9 -55 -2 -8 -7 -46 -11 -85 -4 -38 -8 -83 -10 -100 -27 -224 -22 -682
10 -930 4 -27 9 -68 12 -90 4 -38 7 -53 19 -115 3 -14 7 -38 9 -55 18 -126
134 -517 192 -643 13 -29 24 -55 24 -58 0 -13 125 -253 182 -349 54 -90 131
-204 175 -260 46 -58 89 -112 98 -121 5 -6 34 -39 64 -74 51 -58 134 -140 223
-221 129 -118 362 -283 515 -366 76 -41 241 -123 247 -123 4 0 25 -9 49 -19
104 -46 305 -113 410 -136 10 -2 28 -7 39 -11 11 -3 31 -8 44 -10 13 -2 34 -6
47 -9 100 -20 182 -34 242 -40 28 -3 61 -8 75 -10 65 -11 245 -19 440 -19 192
0 270 4 405 20 22 2 58 6 80 9 22 2 54 7 70 10 17 3 46 8 65 11 71 12 86 15
150 31 36 8 76 17 89 18 13 2 35 8 50 14 23 9 96 30 126 37 37 8 279 106 370
150 170 82 347 187 436 258 15 12 39 30 55 41 163 116 379 331 528 524 71 93
176 248 176 261 0 6 4 10 9 10 5 0 14 12 20 28 6 15 21 43 32 62 21 34 117
224 144 285 23 53 78 192 81 205 0 3 3 12 7 20 6 15 30 91 32 100 1 3 11 37
23 75 11 39 23 81 26 95 3 14 12 53 20 87 9 34 18 77 21 95 3 18 8 40 10 48 2
8 6 33 10 55 3 22 8 54 11 70 9 49 17 115 31 260 8 83 8 631 0 725 -4 36 -8
81 -11 100 -2 19 -7 58 -10 85 -4 28 -9 66 -13 85 -10 55 -11 63 -17 105 -3
22 -11 60 -17 85 -6 25 -13 56 -15 68 -3 13 -11 48 -19 78 -8 30 -21 78 -29
107 -8 28 -33 104 -56 167 -23 63 -43 120 -44 125 -5 18 -47 108 -105 224 -83
168 -92 186 -102 189 -5 2 -9 9 -9 14 0 6 -22 47 -50 90 -27 43 -50 83 -50 87
0 5 -4 11 -8 13 -4 2 -23 25 -42 53 -41 58 -44 63 -69 93 -11 13 -34 41 -53
64 -94 116 -285 307 -389 388 -24 19 -45 38 -47 42 -2 4 -10 8 -17 8 -7 0 -15
4 -17 8 -17 44 -521 337 -613 357 -6 2 -31 12 -56 23 -60 28 -286 102 -324
107 -5 1 -30 7 -55 15 -25 7 -54 14 -65 15 -11 2 -38 7 -60 13 -63 16 -259 45
-385 58 -59 5 -577 14 -582 9z m457 -854 c0 -1 20 -4 45 -6 49 -5 100 -12 142
-20 16 -3 40 -7 55 -9 49 -6 248 -58 258 -67 5 -5 16 -9 25 -9 41 0 258 -100
384 -177 138 -84 231 -158 351 -278 116 -115 166 -171 193 -217 9 -16 20 -28
24 -28 4 0 8 -4 8 -9 0 -5 19 -37 42 -71 23 -35 49 -77 58 -94 9 -17 33 -61
53 -98 79 -150 161 -376 202 -563 3 -11 8 -33 11 -50 4 -16 8 -39 10 -50 1
-11 3 -20 4 -20 1 0 3 -11 5 -25 6 -49 15 -115 19 -135 36 -185 36 -669 1
-915 -3 -19 -7 -51 -10 -70 -19 -152 -100 -462 -150 -575 -7 -16 -26 -57 -40
-90 -42 -93 -73 -156 -100 -200 -14 -22 -28 -47 -32 -55 -11 -24 -122 -181
-166 -235 -46 -57 -205 -215 -261 -260 -20 -16 -43 -35 -49 -41 -11 -9 -178
-118 -232 -151 -21 -13 -147 -76 -155 -78 -3 -1 -23 -9 -45 -19 -22 -9 -74
-29 -115 -43 -41 -14 -82 -28 -90 -31 -39 -14 -261 -59 -335 -68 -150 -18
-384 -22 -560 -11 -49 4 -90 7 -90 7 0 1 -16 4 -90 16 -89 13 -102 16 -148 29
-27 8 -52 14 -55 14 -4 -1 -9 0 -12 1 -3 1 -12 3 -20 5 -8 1 -46 13 -85 26
-38 13 -72 24 -75 24 -5 2 -38 15 -90 38 -14 6 -28 11 -32 11 -13 2 -183 91
-186 99 -2 4 -8 7 -13 7 -13 0 -133 81 -137 92 -2 4 -9 8 -15 8 -7 0 -26 13
-44 28 -17 15 -48 41 -69 57 -198 159 -422 465 -537 735 -29 69 -96 253 -96
263 0 1 -2 9 -5 17 -5 18 -36 145 -42 174 -2 12 -7 35 -11 51 -3 17 -8 37 -9
45 -10 57 -15 91 -19 130 -3 25 -7 54 -9 66 -7 34 -28 329 -28 389 1 150 15
410 27 490 2 17 7 53 10 80 4 28 8 57 11 66 3 9 7 33 9 53 12 95 112 450 135
481 4 6 11 21 15 35 8 28 89 193 124 255 26 46 111 174 126 191 5 7 28 35 50
64 49 65 206 225 260 265 21 17 47 37 56 45 37 32 49 40 59 40 5 0 10 4 10 8
0 20 373 222 408 222 5 0 27 7 48 16 22 9 40 16 42 15 1 -1 18 5 37 13 19 8
35 12 35 9 0 -3 7 0 15 7 8 7 15 10 15 6 0 -3 11 -1 26 4 14 6 37 12 52 15 26
5 51 9 102 20 14 2 39 7 55 10 17 3 41 7 55 10 14 2 59 7 99 9 40 3 75 7 77 9
4 4 409 2 409 -2z"/>
<path d="M339 23550 l-24 -5 1 -3120 c1 -1716 2 -3126 3 -3134 1 -8 8 -11 21
-8 11 3 20 1 20 -3 0 -5 13 -5 30 0 16 5 30 6 30 2 0 -4 65 -7 145 -7 80 0
145 3 145 7 0 4 14 3 30 -2 17 -5 30 -5 30 0 0 5 13 5 30 0 18 -5 30 -5 30 0
0 6 10 6 25 0 15 -6 27 -6 30 0 3 6 15 6 30 0 14 -5 27 -5 30 0 3 5 18 5 35 0
17 -5 30 -5 30 0 0 5 13 5 30 0 18 -5 30 -5 30 0 0 6 9 6 23 1 12 -5 32 -5 44
0 13 5 25 4 28 -1 3 -6 15 -6 30 0 15 6 27 6 30 0 4 -6 13 -7 23 -1 17 9 18
141 17 2303 -1 1261 1 2297 3 2302 4 8 74 -123 174 -324 23 -47 47 -88 53 -92
6 -5 6 -8 0 -8 -7 0 -7 -3 0 -8 6 -4 35 -56 65 -117 30 -60 58 -111 63 -113 4
-2 7 -10 7 -17 0 -8 12 -36 28 -62 15 -27 61 -116 102 -198 41 -83 77 -152 80
-155 3 -3 32 -57 64 -120 58 -114 146 -285 276 -535 37 -71 105 -202 150 -290
45 -88 87 -166 92 -172 6 -7 7 -13 4 -13 -4 0 1 -12 12 -27 19 -28 29 -51 30
-67 0 -5 4 -12 9 -15 5 -3 30 -46 55 -96 144 -283 201 -391 210 -402 6 -7 7
-13 4 -13 -4 0 0 -7 8 -16 9 -8 14 -19 11 -24 -3 -5 -2 -10 3 -12 4 -1 39 -64
77 -138 38 -74 86 -169 108 -210 43 -84 49 -96 65 -126 83 -162 166 -321 172
-329 11 -14 726 -13 739 0 5 6 38 66 72 135 34 69 65 127 69 130 4 3 10 15 14
27 4 12 25 54 46 93 21 38 36 70 33 70 -3 0 -1 6 5 13 12 14 45 77 256 489 66
131 150 295 186 365 36 71 135 263 219 428 85 165 158 306 164 313 5 6 6 12 1
12 -5 0 -4 4 1 8 6 4 46 77 89 162 44 85 112 218 152 295 39 77 107 210 150
295 43 85 83 158 89 162 5 4 6 8 1 8 -5 0 -4 6 1 13 6 6 65 118 131 247 207
405 223 435 230 442 4 4 7 -1032 7 -2302 l0 -2309 22 -4 c13 -2 23 -1 23 4 0
4 13 4 30 -1 17 -5 30 -5 30 0 0 5 13 5 30 0 18 -5 30 -5 30 0 0 6 10 6 25 0
14 -5 27 -5 30 0 3 5 18 5 35 0 17 -5 30 -5 30 0 0 5 13 5 30 0 18 -5 30 -5
30 0 0 6 10 6 23 1 13 -5 30 -5 37 -1 8 5 21 5 30 0 9 -5 22 -5 30 0 8 5 18 6
24 3 12 -8 102 -7 115 2 6 3 11 3 11 -2 0 -9 121 -9 145 0 8 4 17 2 20 -3 3
-6 15 -6 30 0 14 5 25 6 25 2 0 -7 55 -6 95 1 19 4 19 32 20 3135 l0 3132 -60
1 c-91 0 -974 1 -1021 0 l-41 -1 -77 -152 c-43 -84 -103 -202 -134 -263 -31
-60 -56 -112 -57 -115 0 -3 -13 -27 -27 -55 -114 -219 -145 -284 -140 -289 3
-3 0 -6 -6 -6 -6 0 -14 -10 -18 -22 -3 -13 -12 -30 -19 -38 -8 -8 -14 -19 -14
-25 -1 -13 -160 -327 -172 -339 -5 -6 -9 -18 -9 -27 0 -10 -3 -19 -8 -21 -4
-1 -72 -131 -150 -288 -79 -157 -225 -445 -324 -640 -99 -195 -281 -555 -404
-799 -123 -245 -229 -450 -235 -458 -6 -7 -8 -13 -4 -13 4 0 3 -6 -3 -12 -6
-7 -76 -145 -157 -305 -81 -161 -151 -293 -155 -293 -4 0 -45 75 -91 168 -46
92 -86 169 -89 172 -3 3 -79 151 -169 330 -130 258 -348 688 -420 829 -6 11
-15 29 -20 39 -5 10 -67 133 -139 273 -71 140 -205 403 -297 584 -92 182 -176
345 -187 363 -11 17 -17 32 -13 32 3 0 -3 14 -15 30 -12 17 -18 30 -13 30 4 0
3 4 -2 8 -6 4 -66 117 -134 252 -256 504 -287 565 -296 580 -5 8 -10 20 -11
26 -1 6 -14 30 -28 52 -14 23 -24 42 -21 42 3 0 -6 18 -20 40 -14 22 -25 46
-25 54 0 8 -4 17 -8 20 -5 3 -34 57 -66 120 -46 93 -62 116 -79 117 -123 3
-1059 3 -1078 -1z"/>
<path d="M9690 23550 c-8 -5 -14 -37 -10 -55 2 -11 1 -139 -1 -152 -1 -4 0
-12 1 -18 3 -14 3 -118 0 -130 -1 -5 -2 -14 -1 -20 6 -28 2 -235 -3 -244 -4
-6 -4 -11 1 -11 7 0 9 -142 3 -175 -1 -5 -1 -23 0 -40 6 -85 5 -157 -2 -161
-5 -3 -6 -10 -2 -15 5 -9 9 -238 4 -264 -1 -5 -1 -23 0 -40 6 -85 5 -157 -2
-161 -5 -3 -6 -10 -2 -15 5 -9 9 -241 4 -261 -3 -10 -3 -56 0 -65 3 -11 3
-116 0 -128 -1 -5 -1 -14 0 -20 2 -11 1 -138 -1 -152 -1 -4 0 -12 1 -18 3 -14
3 -118 0 -130 -1 -5 -2 -14 -1 -20 6 -28 2 -235 -3 -244 -4 -6 -4 -11 1 -11 7
0 9 -142 3 -175 -1 -5 -1 -23 0 -40 6 -85 5 -157 -2 -161 -5 -3 -6 -10 -2 -15
5 -9 9 -238 4 -264 -1 -5 -1 -23 0 -40 6 -85 5 -157 -2 -161 -5 -3 -6 -10 -2
-15 5 -9 9 -241 4 -261 -3 -10 -3 -56 0 -65 3 -11 3 -116 0 -128 -1 -5 -1 -14
0 -20 2 -11 1 -138 -1 -152 -1 -4 0 -12 1 -18 3 -14 3 -118 0 -130 -1 -5 -2
-14 -1 -20 6 -28 2 -235 -3 -244 -4 -6 -4 -11 1 -11 7 0 9 -142 3 -175 -1 -5
-1 -23 0 -40 6 -85 5 -157 -2 -161 -5 -3 -6 -10 -2 -15 5 -9 9 -238 4 -264 -1
-5 -1 -23 0 -40 6 -85 5 -157 -2 -161 -5 -3 -6 -10 -2 -15 5 -9 9 -241 4 -261
-3 -10 -3 -56 0 -65 3 -11 3 -116 0 -128 -1 -5 -1 -14 0 -20 4 -22 0 -157 -6
-166 -3 -5 -2 -9 3 -9 9 0 8 -124 -2 -139 -3 -6 -3 -11 2 -11 4 0 8 -29 7 -64
-1 -60 1 -65 23 -69 12 -2 23 -1 23 4 0 4 14 4 30 -1 17 -5 30 -5 30 0 0 5 13
5 30 0 18 -5 30 -5 30 0 0 6 10 6 25 0 14 -5 27 -5 30 0 3 5 18 5 35 0 17 -5
30 -5 30 0 0 5 13 5 30 0 18 -5 30 -5 30 0 0 6 10 6 23 1 13 -5 30 -5 37 -1 8
5 21 5 30 0 9 -5 22 -5 30 0 8 5 20 5 27 1 7 -4 38 -4 68 -1 30 3 55 3 55 -1
0 -4 14 -4 30 1 17 5 30 6 30 2 0 -4 27 -7 60 -7 33 0 60 3 60 7 0 4 13 3 30
-2 16 -5 32 -5 35 0 3 5 18 5 34 0 15 -4 34 -4 40 0 10 5 12 710 12 3134 0
1721 -2 3130 -5 3133 -7 7 -925 10 -936 3z"/>
<path d="M13527 23548 c-14 -8 -17 -6257 -4 -6265 13 -8 92 -7 105 0 6 4 13 3
17 -2 3 -7 15 -7 30 -1 15 6 27 6 30 0 3 -6 15 -6 30 0 14 5 25 6 25 2 0 -8
345 -6 366 2 8 3 14 1 14 -4 0 -5 13 -5 30 0 17 5 30 5 30 0 0 -5 13 -5 30 0
17 5 30 6 30 2 0 -8 145 -6 166 2 8 3 14 1 14 -4 0 -5 6 -7 13 -4 11 4 13 419
13 2309 -1 1268 2 2305 5 2305 3 0 14 -19 25 -42 10 -24 21 -45 24 -48 3 -3
27 -50 54 -105 28 -55 58 -112 69 -127 10 -16 15 -28 11 -28 -3 0 -2 -6 4 -12
5 -7 47 -85 92 -173 45 -88 115 -223 155 -300 40 -77 116 -225 170 -330 54
-104 102 -194 106 -199 5 -6 9 -18 9 -27 0 -10 3 -19 8 -21 4 -1 23 -34 43
-73 88 -172 328 -634 337 -650 4 -5 7 -16 8 -23 1 -7 7 -18 12 -25 10 -11 70
-126 246 -469 39 -76 98 -190 132 -255 33 -65 89 -174 124 -243 35 -69 69
-128 75 -132 5 -4 6 -8 1 -8 -5 0 -4 -6 2 -12 5 -7 53 -98 107 -203 54 -104
101 -194 106 -200 13 -13 728 -14 737 -1 10 14 194 370 293 566 46 91 86 167
89 170 3 3 48 90 99 193 52 104 99 190 103 193 4 3 8 12 8 20 0 8 5 20 10 27
6 7 53 98 106 202 53 105 129 253 169 330 40 77 101 196 135 265 35 69 67 128
72 131 6 3 10 10 10 15 0 10 99 215 108 224 3 3 36 68 75 145 38 77 78 152 88
168 10 15 15 27 11 27 -3 0 -1 6 5 14 7 8 48 86 93 173 44 87 130 255 191 373
61 118 139 271 173 339 35 69 67 128 71 132 5 5 8 -1030 8 -2298 0 -1692 3
-2307 11 -2310 17 -6 104 -9 104 -3 0 3 23 5 50 5 28 0 50 -3 50 -7 0 -4 14
-3 30 2 17 5 30 5 30 0 0 -5 13 -5 30 0 17 5 30 6 30 2 0 -8 145 -6 166 2 8 3
14 1 14 -4 0 -5 13 -5 30 0 17 5 30 6 30 2 0 -4 65 -7 145 -7 80 0 145 3 145
7 0 4 13 3 29 -2 15 -4 34 -4 42 1 12 7 14 498 14 3139 0 3123 0 3130 -20
3131 -25 1 -1017 0 -1066 0 -31 -1 -39 -6 -49 -31 -7 -16 -17 -30 -22 -30 -6
0 -8 -6 -5 -14 3 -8 3 -16 -1 -18 -7 -3 -136 -255 -345 -673 -55 -110 -106
-207 -113 -215 -7 -8 -12 -19 -12 -23 0 -11 -85 -181 -95 -188 -5 -3 -8 -9 -8
-13 1 -3 -13 -34 -30 -69 -212 -420 -381 -753 -389 -761 -4 -6 -8 -13 -9 -16
0 -10 -15 -45 -20 -50 -3 -3 -67 -126 -141 -275 -74 -148 -139 -273 -145 -277
-5 -4 -7 -8 -2 -8 4 0 -8 -28 -27 -62 -19 -35 -108 -209 -198 -388 -90 -179
-169 -334 -175 -345 -6 -11 -17 -33 -25 -50 -8 -16 -42 -85 -76 -152 -34 -68
-62 -126 -63 -130 0 -5 -5 -13 -10 -19 -5 -6 -49 -91 -98 -188 -49 -97 -92
-172 -95 -167 -4 5 -43 81 -87 168 -44 86 -84 162 -89 168 -4 5 -9 13 -9 18 0
4 -19 43 -41 87 -22 44 -41 83 -41 87 0 5 -6 14 -11 21 -17 20 -58 104 -58
118 0 7 -4 14 -8 16 -4 2 -50 86 -101 188 -207 410 -354 696 -363 708 -6 6 -7
12 -3 12 4 0 3 6 -3 13 -5 6 -52 95 -103 197 -52 102 -97 187 -101 188 -5 2
-8 11 -8 21 0 9 -4 21 -9 27 -5 5 -77 144 -160 309 -84 165 -156 304 -162 310
-5 5 -9 14 -9 21 0 7 -15 39 -34 73 -19 33 -38 70 -42 83 -3 13 -9 25 -13 28
-3 3 -69 129 -145 280 -252 499 -358 705 -368 718 -6 6 -8 12 -4 12 3 0 -7 21
-22 48 -15 26 -36 67 -47 92 -10 25 -24 51 -29 59 -6 7 -20 32 -31 54 l-20 41
-548 0 c-302 1 -554 -2 -560 -6z"/>
<path d="M22924 23552 c-32 -2 -43 -8 -47 -23 -3 -10 -2 -21 1 -23 9 -5 7
-250 -2 -265 -4 -6 -4 -11 1 -11 4 0 8 -16 8 -35 0 -19 -4 -35 -8 -35 -5 0 -5
-6 0 -12 10 -18 10 -100 0 -115 -5 -7 -6 -13 -1 -13 11 0 10 -242 0 -259 -4
-6 -3 -11 3 -11 7 0 7 -8 1 -25 -5 -14 -6 -25 -2 -25 4 0 7 -32 7 -70 0 -39
-4 -70 -9 -70 -5 0 -4 -6 1 -12 10 -15 10 -249 -1 -266 -4 -7 -4 -12 1 -12 4
0 8 -16 8 -35 0 -19 -4 -35 -9 -35 -5 0 -4 -6 1 -12 10 -16 10 -98 0 -115 -5
-7 -5 -13 0 -13 10 0 9 -242 -1 -259 -4 -6 -3 -11 3 -11 7 0 7 -8 1 -25 -5
-14 -6 -25 -2 -25 4 0 7 -32 7 -70 0 -39 -4 -70 -9 -70 -5 0 -4 -6 1 -12 10
-15 10 -249 -1 -266 -4 -7 -4 -12 1 -12 4 0 8 -16 8 -35 0 -19 -4 -35 -9 -35
-5 0 -4 -6 1 -12 10 -16 10 -98 0 -115 -5 -7 -5 -13 0 -13 10 0 9 -242 -1
-259 -4 -6 -3 -11 3 -11 7 0 7 -8 1 -25 -5 -14 -6 -25 -2 -25 4 0 7 -32 7 -70
0 -39 -4 -70 -8 -70 -5 0 -5 -6 0 -12 10 -17 11 -129 0 -150 -4 -10 -4 -18 0
-18 4 0 8 -32 8 -70 0 -39 -4 -70 -9 -70 -5 0 -4 -6 1 -12 10 -15 10 -249 -1
-266 -4 -7 -4 -12 1 -12 4 0 8 -16 8 -35 0 -19 -4 -35 -8 -35 -5 0 -5 -6 0
-12 10 -18 10 -100 0 -115 -5 -7 -6 -13 -1 -13 11 0 10 -242 0 -259 -4 -6 -3
-11 3 -11 7 0 7 -8 1 -25 -5 -14 -6 -25 -2 -25 4 0 7 -32 7 -70 0 -39 -4 -70
-9 -70 -5 0 -4 -6 1 -12 10 -15 10 -249 -1 -266 -4 -7 -4 -12 1 -12 4 0 8 -16
8 -35 0 -19 -4 -35 -9 -35 -5 0 -4 -6 1 -12 10 -16 10 -98 0 -115 -5 -7 -5
-13 0 -13 10 0 9 -242 -1 -259 -4 -6 -3 -11 3 -11 7 0 7 -8 1 -25 -5 -14 -6
-25 -2 -25 4 0 7 -32 7 -70 0 -39 -4 -70 -9 -70 -5 0 -4 -6 1 -12 10 -15 10
-249 -1 -266 -4 -7 -4 -12 1 -12 4 0 8 -16 8 -35 0 -19 -4 -35 -9 -35 -5 0 -4
-6 1 -12 10 -16 10 -98 0 -115 -5 -7 -5 -13 0 -13 10 0 9 -242 -1 -259 -4 -6
-3 -11 3 -11 7 0 7 -8 1 -25 -5 -14 -6 -25 -2 -25 4 0 7 -32 7 -70 0 -39 -4
-70 -9 -70 -5 0 -4 -6 1 -12 5 -7 8 -44 8 -81 -1 -61 0 -68 17 -64 10 3 18 1
18 -3 0 -5 14 -5 30 0 17 5 30 5 30 1 0 -4 27 -4 60 -1 33 3 60 3 60 -1 0 -4
14 -4 30 1 17 5 30 5 30 0 0 -5 13 -5 30 0 17 5 30 6 30 2 0 -8 145 -6 166 2
8 3 14 1 14 -4 0 -5 13 -5 30 0 17 5 30 6 30 2 0 -4 65 -7 145 -7 80 0 145 3
145 7 0 4 13 3 29 -2 15 -4 34 -4 41 0 10 6 12 653 12 3134 0 1720 -2 3130 -5
3133 -6 6 -830 10 -903 5z"/>
<path d="M26755 23550 l-40 -5 2 -3120 c0 -1716 1 -3126 2 -3134 1 -8 4 -12 7
-8 3 3 17 2 30 -3 14 -6 26 -6 29 0 3 6 15 6 29 0 13 -5 26 -6 30 -3 8 8 96 9
96 1 0 -4 14 -3 30 2 17 5 30 5 30 0 0 -5 13 -5 30 0 17 5 30 6 30 2 0 -8 145
-6 166 2 8 3 14 1 14 -4 0 -5 13 -5 30 0 17 5 30 6 30 2 0 -4 65 -7 145 -7 80
0 145 3 145 7 0 4 13 3 30 -2 20 -6 32 -5 37 3 5 7 8 1065 9 2352 0 1287 4
2341 8 2343 8 3 276 -394 276 -409 0 -5 5 -9 10 -9 6 0 10 -6 10 -14 0 -8 3
-16 8 -18 10 -4 112 -156 112 -167 0 -5 3 -11 8 -13 10 -4 72 -97 72 -107 0
-5 3 -11 8 -13 7 -3 222 -322 231 -343 2 -5 8 -14 13 -20 5 -5 59 -84 118
-175 60 -91 113 -170 117 -175 19 -24 70 -101 74 -110 4 -11 81 -127 89 -135
11 -10 565 -846 571 -860 4 -9 14 -22 23 -29 9 -7 16 -19 16 -25 0 -7 8 -21
18 -32 9 -10 37 -50 62 -89 24 -38 47 -72 50 -75 3 -3 17 -23 30 -45 13 -22
28 -44 33 -50 4 -5 133 -199 287 -430 154 -231 284 -427 289 -435 124 -185
172 -258 181 -270 31 -44 120 -182 120 -187 0 -2 6 -11 13 -18 26 -30 37 -44
37 -49 0 -9 104 -161 112 -164 5 -2 8 -7 8 -12 0 -12 129 -203 147 -217 11 -8
20 -9 28 -3 7 5 15 7 18 3 9 -8 653 -7 666 2 6 3 11 3 11 -2 0 -9 208 -8 217
1 8 8 8 6255 0 6262 -5 5 -513 8 -879 5 l-66 -1 0 -2351 c0 -1293 -2 -2352 -4
-2354 -3 -4 -157 222 -190 279 -10 16 -26 40 -38 53 -11 12 -17 23 -12 23 4 0
3 4 -3 8 -12 9 -75 98 -75 107 0 3 -5 11 -11 18 -5 7 -109 161 -229 342 -258
387 -238 357 -272 406 -16 21 -28 43 -28 47 0 5 -8 17 -18 28 -10 10 -29 37
-42 59 -13 22 -26 42 -30 45 -6 6 -62 90 -70 105 -3 6 -39 60 -80 120 -41 61
-81 121 -90 135 -8 14 -69 106 -135 203 -66 98 -125 186 -130 195 -34 56 -211
318 -217 320 -5 2 -8 8 -8 13 0 9 -38 68 -51 79 -3 3 -12 16 -19 29 -7 14 -17
30 -22 35 -5 6 -107 160 -228 341 -120 182 -224 335 -229 342 -6 7 -11 15 -11
18 0 4 -11 21 -25 39 -14 18 -25 38 -25 44 0 6 -3 12 -8 14 -10 4 -232 337
-232 348 0 5 -4 10 -8 12 -11 4 -72 94 -72 106 0 6 -4 12 -8 14 -4 2 -49 66
-100 143 -50 77 -95 145 -100 150 -4 6 -48 71 -97 145 -48 74 -92 137 -97 138
-4 2 -8 8 -8 13 0 4 -27 49 -60 99 -51 76 -65 90 -88 91 -145 3 -856 3 -887
-1z"/>
</g>
</svg>
